<?xml version="1.0" standalone="no"?>
<!DOCTYPE svg PUBLIC "-//W3C//DTD SVG 20010904//EN"
 "http://www.w3.org/TR/2001/REC-SVG-20010904/DTD/svg10.dtd">
<svg version="1.0" xmlns="http://www.w3.org/2000/svg"
 width="192.000000pt" height="108.000000pt" viewBox="0 0 192.000000 108.000000"
 preserveAspectRatio="xMidYMid meet">
<metadata>
Created by potrace 1.16, written by Peter Selinger 2001-2019
</metadata>
<g transform="translate(0.000000,108.000000) scale(0.032000,-0.018000)"
fill="#000000" stroke="none">
<path d="M1545 5129 c-10 -27 0 -634 10 -632 6 2 11 56 13 130 2 86 7 130 15
135 7 4 37 8 67 8 70 0 111 24 139 82 44 92 17 229 -53 265 -42 22 -184 31
-191 12z m181 -34 c40 -26 68 -98 61 -161 -11 -105 -53 -144 -157 -144 l-60 0
0 166 0 167 65 -5 c36 -3 77 -13 91 -23z"/>
<path d="M1980 4820 c0 -207 4 -320 10 -320 6 0 10 50 10 129 0 144 -2 141 75
141 l43 0 63 -140 c54 -121 78 -162 79 -132 0 4 -25 66 -56 137 l-56 131 40
39 c52 53 70 123 52 202 -22 98 -73 132 -202 133 l-58 0 0 -320z m159 282 c52
-26 74 -63 79 -131 5 -70 -9 -119 -44 -152 -21 -20 -38 -24 -100 -27 l-74 -4
0 166 0 166 53 0 c30 0 67 -7 86 -18z"/>
<path d="M2423 5120 c-54 -32 -57 -48 -61 -259 -5 -244 1 -293 38 -334 27 -31
32 -32 103 -32 149 0 157 17 157 320 0 255 -5 281 -65 309 -47 22 -132 21
-172 -4z m164 -20 c49 -30 55 -65 51 -312 l-3 -218 -26 -26 c-52 -51 -174 -41
-204 16 -12 23 -15 75 -15 255 0 235 3 254 44 287 30 25 112 24 153 -2z"/>
<path d="M2796 5124 c-12 -31 -7 -609 6 -622 18 -18 167 -3 202 21 50 35 56
66 56 299 0 238 -5 257 -72 298 -43 26 -182 29 -192 4z m167 -18 c66 -27 68
-40 65 -302 l-3 -236 -28 -24 c-24 -21 -38 -24 -103 -24 l-74 0 0 300 0 300
55 0 c31 0 70 -6 88 -14z"/>
<path d="M3232 4849 l3 -291 37 -34 c28 -25 47 -34 73 -34 61 0 103 24 125 72
18 39 20 67 20 311 0 171 -4 267 -10 267 -6 0 -10 -89 -10 -247 0 -268 -6
-314 -43 -350 -26 -27 -88 -34 -125 -14 -48 26 -52 51 -52 341 0 181 -3 270
-10 270 -8 0 -10 -94 -8 -291z"/>
<path d="M3610 5129 c0 -5 33 -9 73 -11 l72 -3 3 -313 c1 -202 6 -311 12 -307
6 4 10 123 10 316 l0 309 71 0 c40 0 68 4 65 9 -7 11 -306 11 -306 0z"/>
<path d="M4069 5117 c-19 -13 -39 -38 -46 -57 -15 -43 -17 -429 -3 -481 16
-58 51 -82 124 -87 75 -5 117 13 146 61 18 29 20 52 20 265 0 260 -4 277 -66
307 -49 23 -134 20 -175 -8z m166 -17 c53 -33 57 -53 53 -304 l-3 -226 -28
-27 c-25 -25 -34 -28 -97 -28 -59 0 -73 3 -92 23 -23 22 -23 28 -26 273 l-3
250 30 29 c25 26 37 30 82 30 34 0 62 -7 84 -20z"/>
<path d="M2384 4081 c-2 -2 -4 -148 -4 -323 l0 -318 119 0 c69 0 122 4 126 10
4 6 -30 10 -94 10 -54 0 -106 3 -115 6 -13 5 -16 26 -16 125 l0 119 35 1 c19
1 58 2 85 3 87 2 61 21 -32 24 l-88 3 0 159 0 160 109 0 c63 0 112 4 116 10 7
11 6 11 -138 13 -54 1 -101 0 -103 -2z"/>
<path d="M2848 4074 c-37 -20 -58 -63 -58 -121 0 -62 25 -109 81 -151 146
-111 169 -140 169 -220 0 -48 -4 -58 -34 -88 -29 -29 -41 -34 -83 -34 -28 0
-58 7 -71 16 -26 18 -52 65 -52 94 0 11 -4 20 -10 20 -31 0 5 -109 45 -136 36
-23 123 -22 164 2 46 27 75 93 67 152 -9 65 -43 111 -136 182 -44 34 -87 72
-96 85 -22 34 -29 99 -14 135 21 51 100 77 151 50 24 -13 49 -61 49 -95 0 -14
5 -25 10 -25 16 0 11 69 -7 100 -9 16 -27 33 -40 39 -34 15 -103 13 -135 -5z"/>
<path d="M3602 3765 l3 -320 123 -3 c79 -2 122 1 122 8 0 6 -39 10 -100 11
-55 1 -106 2 -112 3 -10 1 -14 35 -16 124 l-3 122 73 1 c94 2 98 2 98 14 0 6
-37 11 -85 13 l-85 3 0 159 0 160 115 0 c65 0 115 4 115 9 0 6 -56 11 -125 13
l-125 3 2 -320z"/>
<path d="M1940 4070 c0 -6 30 -10 70 -10 l70 0 2 -307 c2 -234 6 -307 16 -311
9 -3 12 63 12 307 l0 311 70 0 c40 0 70 4 70 10 0 6 -58 10 -155 10 -97 0
-155 -4 -155 -10z"/>
<path d="M3165 4070 c3 -5 35 -10 70 -10 l65 0 2 -307 c2 -197 7 -308 13 -308
6 0 11 111 13 308 l2 307 70 0 c40 0 70 4 70 10 0 6 -59 10 -156 10 -101 0
-153 -3 -149 -10z"/>
<path d="M1277 2823 c-4 -3 -7 -285 -7 -625 l0 -618 74 0 74 0 4 338 c2 185 2
466 0 625 l-4 287 -67 0 c-37 0 -71 -3 -74 -7z"/>
<path d="M1460 2250 c0 -380 3 -580 10 -580 7 0 10 200 10 580 0 380 -3 580
-10 580 -7 0 -10 -200 -10 -580z"/>
<path d="M1510 2250 l0 -580 75 0 75 0 0 580 0 580 -75 0 -75 0 0 -580z"/>
<path d="M1698 2558 c-1 -150 -2 -291 -1 -313 0 -22 0 -161 1 -308 l2 -268 48
3 47 3 3 578 2 577 -50 0 -50 0 -2 -272z"/>
<path d="M1850 2250 l0 -580 75 0 75 0 0 580 0 580 -75 0 -75 0 0 -580z"/>
<path d="M2040 2250 c0 -380 3 -580 10 -580 7 0 10 200 10 580 0 380 -3 580
-10 580 -7 0 -10 -200 -10 -580z"/>
<path d="M2080 2250 c0 -380 3 -580 10 -580 7 0 10 200 10 580 0 380 -3 580
-10 580 -7 0 -10 -200 -10 -580z"/>
<path d="M2110 2250 c0 -385 3 -579 10 -575 6 4 10 207 10 575 0 368 -4 571
-10 575 -7 4 -10 -190 -10 -575z"/>
<path d="M2140 2250 c0 -380 3 -580 10 -580 7 0 10 200 10 580 0 380 -3 580
-10 580 -7 0 -10 -200 -10 -580z"/>
<path d="M2179 2573 c-1 -142 -1 -402 -1 -578 l0 -320 76 -3 76 -3 0 581 0
580 -75 0 -75 0 -1 -257z"/>
<path d="M2390 2250 c0 -385 3 -579 10 -575 6 4 10 207 10 575 0 368 -4 571
-10 575 -7 4 -10 -190 -10 -575z"/>
<path d="M2420 2250 c0 -380 3 -580 10 -580 7 0 10 200 10 580 0 380 -3 580
-10 580 -7 0 -10 -200 -10 -580z"/>
<path d="M2480 2250 l0 -580 75 0 75 0 0 580 0 580 -75 0 -75 0 0 -580z"/>
<path d="M2690 2249 c0 -460 3 -580 13 -577 9 4 13 131 15 581 2 509 0 577
-13 577 -13 0 -15 -70 -15 -581z"/>
<path d="M2750 2250 c0 -380 3 -580 10 -580 7 0 10 200 10 580 0 380 -3 580
-10 580 -7 0 -10 -200 -10 -580z"/>
<path d="M2860 2250 l0 -580 75 0 75 0 0 580 0 580 -75 0 -75 0 0 -580z"/>
<path d="M3065 2818 c-3 -7 -4 -267 -3 -577 2 -441 6 -565 16 -569 9 -3 12
117 12 577 0 393 -3 581 -10 581 -6 0 -13 -6 -15 -12z"/>
<path d="M3130 2250 c0 -380 3 -580 10 -580 7 0 10 200 10 580 0 380 -3 580
-10 580 -7 0 -10 -200 -10 -580z"/>
<path d="M3215 2818 c-3 -7 -4 -267 -3 -578 l3 -565 75 0 75 0 0 575 0 575
-73 3 c-52 2 -74 -1 -77 -10z"/>
<path d="M3410 2250 l0 -580 50 0 50 0 0 580 0 580 -50 0 -50 0 0 -580z"/>
<path d="M3535 2818 c-3 -7 -4 -267 -2 -577 1 -441 5 -565 15 -569 9 -3 12
117 12 577 0 393 -3 581 -10 581 -6 0 -13 -6 -15 -12z"/>
<path d="M3600 2250 l0 -580 50 0 50 0 0 580 0 580 -50 0 -50 0 0 -580z"/>
<path d="M3730 2250 c0 -461 3 -581 13 -577 9 3 12 127 12 577 0 450 -3 574
-12 578 -10 3 -13 -117 -13 -578z"/>
<path d="M3808 2568 c-1 -145 -2 -283 -2 -308 1 -25 2 -168 2 -317 l2 -273 50
0 50 0 0 580 0 580 -50 0 -50 0 -2 -262z"/>
<path d="M3930 2250 c0 -509 2 -580 15 -580 13 0 15 71 15 580 0 509 -2 580
-15 580 -13 0 -15 -71 -15 -580z"/>
<path d="M4010 2250 c0 -380 3 -580 10 -580 7 0 10 200 10 580 0 380 -3 580
-10 580 -7 0 -10 -200 -10 -580z"/>
<path d="M4087 2823 c-4 -3 -7 -264 -7 -580 0 -503 2 -573 15 -573 13 0 15 71
15 580 0 319 -4 580 -8 580 -5 0 -12 -3 -15 -7z"/>
<path d="M4130 2250 c0 -380 3 -580 10 -580 7 0 10 200 10 580 0 380 -3 580
-10 580 -7 0 -10 -200 -10 -580z"/>
<path d="M4200 2250 l0 -580 50 0 50 0 0 580 0 580 -50 0 -50 0 0 -580z"/>
<path d="M4335 2818 c-3 -7 -4 -267 -2 -578 l2 -565 50 0 50 0 3 578 2 577
-50 0 c-31 0 -52 -5 -55 -12z"/>
<path d="M4460 2205 l0 -625 50 0 50 0 0 625 0 625 -50 0 -50 0 0 -625z"/>
<path d="M4597 2823 c-4 -3 -7 -285 -7 -625 0 -543 2 -618 15 -618 13 0 15 76
15 625 0 344 -4 625 -8 625 -5 0 -12 -3 -15 -7z"/>
</g>
</svg>
